<?xml version="1.0" encoding="UTF-8"?>
<svg xmlns="http://www.w3.org/2000/svg" xmlns:xlink="http://www.w3.org/1999/xlink" width="422.791" height="501.494" viewBox="0 0 422.791 501.494">
<defs>
<clipPath id="clip-0">
<path clip-rule="nonzero" d="M 0.109375 0 L 422.472656 0 L 422.472656 500.988281 L 0.109375 500.988281 Z M 0.109375 0 "/>
</clipPath>
</defs>
<g clip-path="url(#clip-0)">
<path fill-rule="nonzero" fill="rgb(0%, 0%, 0%)" fill-opacity="1" d="M 0.109375 500.988281 L 422.472656 500.988281 L 422.472656 0 L 0.109375 0 Z M 0.109375 500.988281 "/>
</g>
<path fill-rule="nonzero" fill="rgb(100%, 100%, 100%)" fill-opacity="1" d="M 81.609375 414.566406 C 81.609375 414.589844 81.988281 407.402344 81.296875 408.058594 L 79.609375 410.808594 L 70.777344 425.890625 L 60.335938 407.980469 L 60.285156 425.632812 C 60.28125 426.648438 60.414062 427.738281 60.503906 428.71875 C 60.742188 430.402344 61.585938 431.109375 62.964844 432.617188 C 60.917969 432.695312 59.195312 432.703125 57.226562 432.667969 C 56.609375 432.023438 59.023438 431.242188 59.03125 428.054688 L 59.078125 407.140625 C 59.082031 405.589844 57.78125 404.855469 56.785156 403.394531 C 58.367188 403.277344 59.8125 403.265625 61.398438 403.304688 L 71.855469 421.414062 L 77.011719 413.125 C 79.03125 409.875 80.785156 406.738281 82.59375 403.3125 C 83.929688 403.277344 85.253906 403.289062 86.6875 403.347656 C 83.824219 406.390625 84.746094 411.027344 84.773438 414.9375 L 84.871094 428.34375 C 84.882812 430.027344 85.390625 431.113281 86.636719 432.566406 C 84.246094 432.75 82.109375 432.714844 79.925781 432.449219 C 80.957031 431.351562 81.496094 430.617188 81.507812 429.363281 Z M 81.609375 414.566406 "/>
<path fill-rule="nonzero" fill="rgb(100%, 100%, 100%)" fill-opacity="1" d="M 171.582031 428.941406 C 176.300781 423.980469 175.390625 414.25 171.277344 408.796875 C 168.332031 404.886719 163.308594 403.195312 158.71875 405.003906 C 150.417969 408.273438 150.644531 420.628906 156.058594 427.304688 C 160.078125 432.261719 167.480469 433.257812 171.582031 428.941406 M 177.886719 418.488281 C 177.796875 427.269531 171.027344 433.496094 162.398438 433.042969 C 152.421875 432.515625 147.519531 422.886719 149.457031 414.046875 C 150.816406 407.84375 156.378906 403.339844 162.664062 402.976562 C 172.070312 402.433594 177.980469 409.316406 177.886719 418.488281 "/>
<path fill-rule="nonzero" fill="rgb(100%, 100%, 100%)" fill-opacity="1" d="M 202 433.046875 L 191.238281 417.917969 L 184.011719 408.105469 L 184 428.207031 C 183.996094 430.015625 184.910156 431.0625 186.179688 432.640625 L 181.425781 432.753906 C 179.515625 432.796875 182.347656 431.789062 182.527344 429.367188 C 182.597656 428.359375 182.8125 427.308594 182.816406 426.3125 L 182.847656 408.179688 C 182.851562 406.191406 182.125 405.09375 180.496094 403.398438 L 184.726562 403.285156 L 195.34375 418.15625 L 202.039062 427.476562 L 202.042969 407.941406 C 202.046875 406.066406 201.324219 405.117188 199.929688 403.394531 L 204.214844 403.261719 C 204.402344 403.257812 204.929688 403.566406 204.867188 403.703125 C 204.40625 404.761719 203.214844 404.914062 203.210938 408.171875 L 203.171875 433.277344 C 203.171875 433.652344 202.210938 433.34375 202 433.046875 "/>
<path fill-rule="nonzero" fill="rgb(100%, 100%, 100%)" fill-opacity="1" d="M 139.570312 432.703125 C 135.332031 433.609375 131.179688 432.488281 127.507812 430.3125 L 127.410156 424.566406 C 127.40625 424.414062 127.835938 424.082031 127.902344 424.164062 C 128.828125 425.289062 128.695312 426.730469 130.847656 429.097656 C 133.140625 431.613281 136.832031 432.691406 140.066406 431.433594 C 142.207031 430.605469 143.320312 428.316406 143.257812 426.210938 C 143.1875 423.921875 141.878906 422.03125 139.691406 421.019531 C 136.179688 419.386719 130.417969 417.324219 128.664062 414.121094 C 127.316406 411.664062 127.730469 408.453125 129.429688 406.308594 C 132.851562 401.992188 140.644531 402.160156 144.890625 404.847656 C 144.921875 406.625 144.941406 408.335938 144.734375 410.1875 C 143.332031 408.09375 142.648438 406.34375 140.699219 405.160156 C 138.273438 403.6875 134.886719 403.554688 132.46875 405.273438 C 130.136719 406.933594 129.796875 410.726562 131.824219 412.742188 C 136.789062 417.671875 148.015625 417.429688 145.957031 426.636719 C 145.273438 429.710938 142.882812 431.996094 139.570312 432.703125 "/>
<path fill-rule="nonzero" fill="rgb(100%, 100%, 100%)" fill-opacity="1" d="M 104.402344 420.722656 C 104.957031 420.808594 105.578125 420.820312 105.769531 420.457031 L 100.496094 407.601562 L 95.480469 420.519531 C 97.449219 420.972656 99.265625 420.816406 101.207031 420.78125 Z M 106.261719 421.78125 L 95.113281 421.75 C 94.625 422.503906 94.265625 423.320312 93.964844 424.152344 C 92.980469 426.863281 91.292969 429.976562 92.9375 431.925781 L 93.257812 432.308594 C 93.765625 432.910156 88.371094 432.707031 87.777344 432.558594 C 88.949219 431.308594 90.085938 430.699219 90.652344 429.269531 L 99.910156 405.925781 C 99.808594 405.53125 99.566406 404.648438 99.667969 404.3125 C 99.898438 403.542969 101.257812 402.949219 102.152344 403.109375 L 106.921875 415 L 112.511719 429.039062 C 113.070312 430.4375 113.949219 431.195312 115.203125 432.554688 C 112.855469 432.746094 110.949219 432.722656 108.554688 432.652344 L 109.550781 430.851562 C 108.65625 427.777344 107.617188 424.96875 106.261719 421.78125 "/>
<path fill-rule="nonzero" fill="rgb(100%, 100%, 100%)" fill-opacity="1" d="M 122.410156 431.664062 L 123.011719 432.1875 C 123.101562 432.265625 122.980469 432.460938 122.855469 432.75 L 116.277344 432.671875 C 117.058594 431.441406 117.992188 430.984375 118 429.921875 L 118.074219 419.953125 L 118.074219 417.84375 L 118.03125 406.613281 C 118.027344 405.3125 117.335938 404.679688 116.304688 403.332031 L 122.882812 403.308594 C 122.722656 403.992188 122.273438 404.257812 121.996094 404.730469 C 121.214844 406.050781 121.152344 407.851562 121.160156 409.449219 L 121.203125 425.027344 L 121.394531 428.621094 C 121.449219 429.65625 121.632812 430.984375 122.410156 431.664062 "/>
<path fill-rule="nonzero" fill="rgb(100%, 100%, 100%)" fill-opacity="1" d="M 270.628906 430.714844 C 273.421875 427.832031 273.273438 422.898438 270.605469 420.113281 C 268 417.394531 262.425781 417.867188 258.746094 417.84375 L 258.730469 431.226562 C 258.730469 432.046875 259.4375 432.910156 260.234375 432.929688 C 263.097656 433.007812 268.445312 432.96875 270.628906 430.714844 M 269.53125 410.152344 C 268.648438 405.242188 262.226562 405.902344 258.738281 405.976562 L 258.738281 416.644531 C 260.808594 416.675781 262.753906 416.746094 264.75 416.535156 C 267.90625 416.203125 270.117188 413.410156 269.53125 410.152344 M 275.601562 427.175781 C 274.390625 432.191406 268.335938 433.941406 263.707031 433.964844 L 254.496094 434.015625 C 252.699219 434.023438 255.558594 432.585938 255.5625 430.628906 L 255.609375 409.769531 C 255.613281 407.898438 255.269531 406.714844 253.773438 404.90625 L 265.371094 404.890625 C 268.664062 404.886719 273.390625 407.300781 272.652344 411.6875 C 272.238281 414.152344 270.421875 415.511719 268.074219 416.933594 C 273.160156 417.921875 276.949219 421.601562 275.601562 427.175781 "/>
<path fill-rule="nonzero" fill="rgb(100%, 100%, 100%)" fill-opacity="1" d="M 360.929688 427.167969 C 362.175781 424.886719 362.542969 422.488281 362.570312 419.960938 C 362.625 415.601562 361.027344 411.394531 357.574219 408.648438 C 353.808594 405.648438 349.496094 405.785156 344.785156 406.015625 L 344.792969 429.164062 C 344.792969 430.207031 344.871094 432.792969 346.03125 432.890625 C 352.011719 433.390625 357.707031 433.082031 360.929688 427.167969 M 350.960938 433.992188 L 340.371094 434.039062 C 340.242188 433.425781 340.714844 433.125 341.042969 432.589844 C 341.679688 431.550781 341.773438 429.902344 341.777344 428.542969 L 341.816406 409.261719 C 341.816406 407.828125 341.34375 406.574219 340.460938 405.625 L 340.144531 405.28125 C 340.054688 405.1875 340.503906 404.851562 340.710938 404.851562 L 352.601562 404.894531 C 353.824219 404.898438 355.125 405.335938 356.171875 405.628906 C 362.378906 407.363281 365.90625 412.917969 365.796875 419.214844 C 365.71875 423.46875 364.511719 427.464844 361.09375 430.28125 C 358.316406 432.574219 354.773438 433.976562 350.960938 433.992188 "/>
<path fill-rule="nonzero" fill="rgb(100%, 100%, 100%)" fill-opacity="1" d="M 278.417969 404.917969 L 284.992188 404.886719 C 283.589844 406.433594 282.9375 407.597656 282.957031 409.511719 L 283.105469 424.46875 C 283.132812 427.492188 285.148438 430.171875 287.234375 431.464844 C 290.023438 433.195312 293.128906 433.421875 295.992188 432.183594 C 298.625 431.046875 300.21875 428.449219 300.832031 425.699219 C 301.015625 424.878906 301.261719 423.875 301.261719 423.042969 L 301.257812 409.546875 C 301.257812 407.632812 300.308594 406.527344 299.074219 404.792969 L 304.332031 404.917969 C 303.1875 406.546875 302.453125 407.664062 302.445312 409.359375 L 302.378906 423.054688 C 302.371094 424.09375 302.074219 425.328125 301.859375 426.296875 C 300.875 430.75 297.453125 433.675781 292.921875 434.152344 C 289.902344 434.46875 286.640625 433.933594 284.082031 432.117188 C 281.457031 430.257812 280.230469 427.140625 280.207031 423.925781 L 280.109375 408.476562 C 280.101562 407.082031 279.550781 406.40625 278.417969 404.917969 "/>
<path fill-rule="nonzero" fill="rgb(100%, 100%, 100%)" fill-opacity="1" d="M 331.347656 432.90625 C 336.441406 432.863281 336.476562 428.40625 337.199219 429.128906 C 337.34375 429.273438 337.539062 429.664062 337.523438 429.882812 L 337.300781 433.285156 C 337.285156 433.5 336.996094 434.066406 336.796875 434.066406 L 318.378906 434.027344 C 319.789062 432.226562 320.195312 431.226562 320.1875 429.410156 L 320.132812 408.304688 C 320.132812 407.027344 319.347656 406.214844 318.546875 404.917969 L 324.425781 404.828125 C 326.597656 404.792969 323.304688 405.84375 323.304688 408 L 323.292969 431.210938 C 323.292969 432.199219 324.117188 432.964844 325.0625 432.957031 Z M 331.347656 432.90625 "/>
<path fill-rule="nonzero" fill="rgb(100%, 100%, 100%)" fill-opacity="1" d="M 312.808594 430.324219 C 312.8125 431.9375 313.390625 432.609375 314.636719 433.953125 C 312.21875 434.089844 310.101562 434.101562 307.824219 433.90625 C 308.570312 432.738281 309.6875 431.917969 309.6875 430.683594 L 309.671875 408.5625 C 309.667969 407.144531 308.808594 406.082031 307.859375 404.941406 L 314.539062 404.90625 C 313.902344 405.839844 313.269531 406.28125 313.105469 406.855469 C 312.257812 409.878906 312.765625 412.808594 312.773438 415.882812 Z M 312.808594 430.324219 "/>
<path fill-rule="nonzero" fill="rgb(100%, 100%, 100%)" fill-opacity="1" d="M 223.367188 418.761719 C 221.390625 419.925781 220.246094 421.925781 219.542969 424.160156 C 219.964844 424.035156 224.480469 418.484375 223.367188 418.761719 M 224.410156 429.902344 C 224.648438 425.808594 225.484375 422.140625 226.554688 417.933594 C 225.511719 418.449219 219.300781 429.042969 217.867188 426.640625 C 216.175781 423.808594 222.242188 416.097656 223.425781 417.277344 L 224.363281 418.214844 C 225.867188 415.921875 227.585938 413.886719 228.746094 411.414062 C 229.996094 408.746094 231.160156 405.855469 232.613281 403.308594 C 232.753906 403.0625 233.546875 402.90625 233.773438 403.050781 C 234 403.195312 234.308594 403.796875 234.226562 404.074219 C 232.882812 408.621094 230.359375 410.976562 228.375 417.648438 C 226.585938 423.675781 225.023438 431.34375 226.332031 437.605469 C 226.539062 438.582031 223.734375 441.566406 224.410156 429.902344 "/>
<path fill-rule="nonzero" fill="rgb(100%, 100%, 100%)" fill-opacity="1" d="M 236.78125 419.59375 C 235.625 419.230469 233.917969 422.0625 233.46875 423.210938 C 234.386719 423.609375 237.761719 419.898438 236.78125 419.59375 M 243.679688 421.269531 C 243.910156 421.042969 244.523438 420.921875 244.761719 421.011719 C 245 421.101562 245.027344 421.929688 244.847656 422.132812 C 242.324219 425 238.117188 429.199219 234.25 429.921875 C 232.960938 430.160156 231.371094 429.386719 231.203125 428.046875 C 231.054688 426.898438 230.980469 425.449219 231.269531 424.398438 C 232.109375 421.367188 235.382812 416.519531 238.082031 418.398438 C 239.789062 419.585938 237.070312 423.765625 233.917969 424.980469 C 232.832031 425.398438 232.382812 426.136719 232.59375 427.148438 C 233.261719 430.371094 238.292969 426.546875 239.707031 425.160156 Z M 243.679688 421.269531 "/>
<path fill-rule="nonzero" fill="rgb(100%, 100%, 100%)" fill-opacity="1" d="M 350.976562 315.046875 L 304.65625 361.503906 L 312.484375 369.316406 L 358.804688 322.859375 Z M 71.503906 314.457031 L 63.355469 322.363281 L 108.476562 368.917969 L 116.625 361.011719 Z M 285.71875 298.707031 C 285.34375 296.65625 282.476562 293.578125 280.777344 292.382812 C 279.203125 291.277344 274.3125 292.796875 272.941406 294.554688 C 274.335938 297.542969 277.617188 300.648438 280.265625 302.3125 C 281.671875 303.195312 286.042969 300.492188 285.71875 298.707031 M 144.152344 300.820312 L 150.128906 294.140625 C 147.660156 292.777344 145.304688 291.042969 144.050781 291.421875 C 143.515625 291.582031 134.746094 297.136719 137.839844 300.445312 C 139.066406 301.757812 143.078125 302.023438 144.152344 300.820312 M 344.179688 288.007812 L 277.511719 354.722656 L 288.707031 365.921875 L 355.375 299.210938 Z M 78.175781 287.476562 L 67.039062 298.605469 L 133.867188 365.550781 L 145.003906 354.421875 Z M 294.074219 287.183594 L 286.808594 279.296875 C 282.417969 282.851562 283.929688 286.667969 287.046875 290.394531 C 288.117188 291.671875 290.796875 293.03125 292.261719 292.898438 C 293.492188 292.785156 295.078125 288.273438 294.074219 287.183594 M 133.929688 290.648438 C 138.304688 287.664062 138.613281 282.675781 136.085938 278.265625 L 128.539062 285.683594 C 127.308594 286.894531 127.472656 290.171875 128.976562 291.621094 C 129.917969 292.527344 132.316406 291.75 133.929688 290.648438 M 335.4375 261.519531 L 252.621094 344.535156 L 264.523438 356.425781 L 347.339844 273.410156 Z M 86.546875 260.421875 L 74.691406 272.261719 L 158.070312 355.882812 L 169.929688 344.046875 Z M 267.84375 276.046875 L 274.742188 274.488281 C 275.765625 274.257812 276.320312 278.863281 275.75 279.941406 C 274.53125 282.238281 269.53125 283.957031 266.289062 283.160156 C 263.375 282.445312 263.367188 276.316406 261.710938 274.632812 L 226.183594 238.542969 C 225.046875 237.390625 223.53125 234.738281 222.546875 235.355469 L 219.273438 237.417969 C 218.460938 237.929688 219.746094 241.308594 220.945312 242.507812 L 264.75 286.277344 C 268.046875 289.574219 273.765625 286.839844 276.28125 284.875 C 279.425781 282.414062 280.847656 277.875 278.8125 273.78125 C 277.605469 271.359375 273.363281 269.605469 270.742188 270.601562 C 268.84375 271.320312 266.445312 275.527344 267.84375 276.046875 M 270.121094 263.007812 L 237.363281 229.226562 C 234.953125 226.734375 233.152344 225.101562 231.339844 225.832031 C 229.953125 226.390625 227.96875 230.652344 229.261719 231.914062 L 263.949219 265.707031 C 264.808594 266.546875 267.765625 267.011719 268.917969 266.804688 C 269.835938 266.644531 271.171875 264.089844 270.121094 263.007812 M 154.664062 276.164062 C 156.164062 274 152.8125 269.761719 150.285156 269.191406 C 148.390625 268.765625 145.0625 271.140625 143.542969 273.375 C 140.597656 277.714844 143.183594 282.773438 146.488281 285.28125 C 150.261719 288.144531 155.804688 288.875 159.769531 284.914062 L 273.3125 171.535156 C 271.566406 169.402344 265.972656 167.503906 264.351562 169.132812 L 210.957031 222.722656 L 160.410156 274.820312 C 158.632812 276.652344 158.359375 282.507812 155.28125 283.179688 C 152.917969 283.695312 148.710938 282.292969 146.8125 280.136719 C 145.953125 279.15625 145.640625 275.410156 146.601562 274.699219 C 147.371094 274.128906 149.355469 273.371094 149.976562 273.949219 C 151.199219 275.226562 153.984375 277.144531 154.664062 276.164062 M 193.839844 205.347656 L 159.203125 170.335938 C 156.539062 167.640625 152.710938 167.628906 149.652344 170.128906 L 187.730469 208.082031 C 188.832031 209.179688 190.789062 210.050781 191.933594 210.183594 C 192.847656 210.289062 195.023438 206.542969 193.839844 205.347656 M 267.582031 151.636719 C 271.160156 150.457031 276.488281 154.574219 276.671875 157.382812 C 276.757812 158.738281 274.792969 161.902344 273.601562 161.820312 C 272.644531 161.757812 271.410156 160.382812 270.464844 159.273438 L 268.496094 156.964844 C 268.089844 156.488281 266.140625 158.75 266.1875 159.523438 C 266.375 162.546875 271.832031 165.867188 275.078125 164.847656 C 279.054688 163.597656 280.859375 159.886719 279.667969 154.453125 C 279.011719 151.472656 274.003906 148.390625 270.992188 148.261719 C 267.914062 148.128906 263.449219 149.9375 261.0625 152.316406 L 235.882812 177.453125 L 204.765625 208.566406 L 151.199219 263.488281 C 152.796875 267.054688 157.65625 266.710938 160.386719 263.980469 L 260.84375 163.460938 C 260.648438 158.300781 262.4375 153.339844 267.582031 151.636719 M 162.890625 163.121094 C 174.214844 176.382812 186.226562 186.914062 197.988281 199.121094 C 199.007812 200.179688 202.234375 200.125 203.035156 199.023438 C 203.699219 198.105469 203.605469 194.925781 202.808594 194.121094 L 161.140625 152.238281 C 157.191406 148.269531 152.105469 147.269531 147.945312 149.773438 C 143.871094 152.226562 141.238281 157.609375 144.03125 162.230469 C 146.957031 167.0625 155.105469 164.109375 156.414062 160.894531 C 156.753906 160.058594 155.378906 156.21875 154.882812 156.890625 L 152.992188 159.464844 C 152.226562 160.507812 150.488281 162.203125 149.527344 162.808594 C 148.566406 163.410156 146.183594 159.722656 146.195312 158.507812 C 146.238281 154.539062 152.105469 151.273438 155.394531 151.464844 C 162.195312 151.859375 160.183594 159.953125 162.890625 163.121094 M 286.785156 157.800781 L 301.304688 143.125 C 301.148438 141.21875 297.027344 138.300781 295.878906 139.398438 L 287.3125 147.601562 C 284.789062 150.550781 283.796875 154.691406 286.785156 157.800781 M 137.613281 157.367188 C 139.578125 153.550781 139.742188 149.777344 138.046875 148.117188 L 128.046875 138.332031 C 126.851562 137.167969 121.917969 141.585938 123.027344 142.785156 C 127.527344 147.648438 132.296875 152.324219 137.613281 157.367188 M 150.726562 142.019531 L 140.421875 130.886719 C 139.515625 129.90625 136.210938 129.210938 134.984375 129.460938 C 133.761719 129.707031 132.382812 133.371094 133.21875 134.292969 C 135.613281 136.9375 140.855469 142.265625 143.726562 144.773438 C 145.097656 145.972656 150.300781 143.132812 150.726562 142.019531 M 281.523438 144.773438 L 291.257812 133.925781 C 292.765625 132.246094 286.25 126.660156 284.683594 128.390625 L 272.289062 142.078125 C 273.613281 143.691406 279.851562 146.636719 281.523438 144.773438 M 269.140625 73.320312 L 256.515625 85.914062 L 336.722656 166.4375 L 349.351562 153.84375 Z M 87.269531 165.449219 L 165.785156 86.4375 C 161.792969 80.9375 158.28125 77.523438 153.625 73.957031 L 121.71875 106.378906 L 75.28125 153.726562 C 78.199219 159.054688 82.042969 163.402344 87.269531 165.449219 M 352.664062 100.402344 L 321.875 69.679688 C 320.246094 68.585938 314.214844 73.007812 315.648438 74.453125 L 349.4375 108.542969 C 350.441406 109.554688 354.375 107.46875 354.839844 106.167969 C 355.300781 104.867188 354.257812 101.996094 352.664062 100.402344 M 74.578125 108.789062 L 107.46875 74.589844 C 109.019531 72.980469 103.460938 68.363281 101.699219 70.132812 L 69.777344 102.230469 C 68.664062 103.347656 69.324219 107.089844 70.183594 107.792969 C 71.035156 108.496094 73.800781 109.597656 74.578125 108.789062 M 297.433594 67.875 L 286.25 79.058594 L 344.859375 137.765625 L 356.046875 126.582031 Z M 126.765625 67.820312 L 67.804688 127.265625 L 78.527344 137.917969 L 137.488281 78.46875 Z M 313.398438 376.933594 C 308.386719 377.832031 301.609375 369 299.554688 369.121094 C 295.769531 369.339844 290.859375 378.996094 283.507812 372.125 L 272.429688 361.765625 C 267.9375 365.410156 262.785156 366.265625 259.214844 362.707031 L 246.121094 349.648438 C 243.023438 346.558594 244.90625 341.113281 247.699219 338.226562 L 275.871094 309.328125 L 211.964844 245.066406 L 147.300781 309.265625 L 174.539062 337.785156 C 176.921875 340.480469 179.882812 345.511719 177.417969 348.683594 C 172.757812 354.691406 166.53125 360.585938 160.425781 364.566406 C 158.121094 366.066406 152.410156 362.953125 150.171875 362.179688 C 144.191406 366.027344 136.175781 379.378906 127.15625 370.578125 C 125.941406 369.390625 123.429688 367.242188 122.476562 367.960938 L 118.1875 371.199219 C 115.375 373.320312 111.792969 376.082031 108.730469 376.0625 C 105.539062 376.050781 101.882812 373.332031 99.339844 370.945312 L 90.433594 362.585938 L 79.441406 370.1875 C 72.390625 366.152344 67.066406 360.832031 63.007812 353.789062 C 64.152344 350.050781 66.972656 346.65625 70.683594 342.445312 L 60.382812 331.269531 C 55 325.425781 55.917969 317.757812 61.390625 312.933594 C 62.476562 311.976562 65.128906 309.695312 64.507812 308.6875 L 61.757812 304.230469 C 57.679688 297.609375 62.527344 291.1875 67.808594 286.652344 L 71.121094 283.808594 C 73.882812 281.4375 62.515625 273.925781 69.519531 266.886719 L 82.539062 253.816406 C 85.238281 251.101562 90.867188 252.179688 93.050781 255.234375 L 120.335938 282.632812 L 185.039062 217.085938 L 116.507812 148.230469 L 94.933594 169.105469 C 91.679688 173.523438 84.851562 176.234375 80.480469 171.839844 L 68.3125 159.617188 C 59.71875 150.984375 75.914062 146.753906 70.355469 141.28125 L 63.527344 134.566406 C 59.28125 130.390625 58.804688 123.917969 63.488281 119.820312 C 64.402344 119.015625 65.824219 117.257812 66.042969 116.253906 C 66.320312 114.996094 64.542969 112.414062 63.566406 111.539062 C 53.058594 102.132812 68.851562 93.765625 69.433594 89.539062 C 67.5625 86.738281 65.148438 83.378906 65.125 81.203125 C 65.097656 78.238281 73.929688 68.839844 77.757812 68.148438 C 79.984375 67.742188 83.769531 70.320312 86.625 72.269531 L 95.09375 64.460938 C 97.078125 62.632812 101.664062 60.492188 104.5625 60.90625 C 107.199219 61.289062 110.5 64.285156 113.722656 67.074219 L 123.738281 60.84375 C 132.980469 57.78125 138.425781 70.597656 141.480469 71.886719 C 144.894531 73.324219 151.671875 59.496094 159.890625 67.882812 L 172.839844 81.101562 C 174.347656 82.636719 174.785156 88.019531 173.148438 89.734375 L 142.519531 121.875 L 211.363281 190.945312 L 247.492188 155.109375 L 280.171875 121.34375 L 250.847656 91.710938 C 248.441406 89.28125 247.601562 83.308594 250.140625 80.753906 L 263.71875 67.085938 C 270.226562 60.539062 276.484375 69.488281 281.355469 72.296875 L 290.816406 63.050781 C 295.476562 58.5 301.496094 59.886719 305.597656 64.332031 C 306.21875 65.003906 307.464844 66.117188 308.039062 66.554688 C 310.03125 68.074219 319.292969 56.726562 325.304688 61.929688 L 336.429688 71.554688 L 345.089844 66.492188 C 351.167969 69.890625 356.007812 75.210938 359.179688 81.851562 L 354.050781 91.265625 C 357.816406 95.398438 362.789062 98.621094 363.648438 103.917969 C 364.234375 107.554688 359.320312 112.769531 357.488281 115.828125 C 359.359375 118.972656 365.027344 124.265625 363.320312 128.113281 C 360.769531 133.859375 355.792969 138.394531 351.871094 142.632812 L 359.328125 153.648438 C 352.527344 161.351562 339.933594 181.15625 330.109375 171.28125 L 307.4375 148.5 L 238.652344 218.054688 L 279.230469 259.917969 L 302.125 283.210938 L 325.339844 259.96875 C 327.957031 257.351562 332.539062 249.796875 337.558594 252.996094 C 342.8125 256.347656 348.25 261.921875 352.460938 266.367188 C 356.820312 270.960938 356.1875 276.308594 352.222656 280.074219 C 345.195312 286.75 362.359375 287.332031 362.308594 299.875 C 362.296875 302.492188 358.851562 306.886719 357.023438 309.789062 C 362.421875 314.136719 369.023438 321.875 364.019531 328.714844 C 360.777344 333.148438 356.460938 337.265625 352.394531 341.71875 L 359.667969 352.984375 C 356.996094 358.351562 347.589844 369.195312 342.742188 369.558594 C 337.871094 369.921875 334.507812 363.011719 332.042969 363.703125 C 327.414062 365 322.996094 375.214844 313.398438 376.933594 "/>
</svg>
